<?xml version="1.0" encoding="utf-8"?>
<!-- Generator: Adobe Illustrator 25.2.0, SVG Export Plug-In . SVG Version: 6.00 Build 0)  -->
<svg version="1.1" id="Layer_1" xmlns="http://www.w3.org/2000/svg" xmlns:xlink="http://www.w3.org/1999/xlink" x="0px" y="0px"
	 viewBox="0 0 128 128" style="enable-background:new 0 0 128 128;" xml:space="preserve">
<style type="text/css">
	.st0{fill:#888888;}
</style>
<path class="st0" d="M64,0C28.7,0,0,28.7,0,64s28.7,64,64,64c35.3,0,64-28.7,64-64S99.3,0,64,0z M85.4,47.6l-1.1,14.5H69.4v50.5
	H50.6V62.1h-10V47.6h10V43v-4.5v-0.7c0-4.3,0.1-10.9,3.2-15c3.3-4.4,7.8-7.3,15.6-7.3c12.7,0,18,1.8,18,1.8l-2.5,14.9
	c0,0-4.2-1.2-8.1-1.2c-3.9,0-7.4,1.4-7.4,5.3v1.6V43v4.6H85.4z"/>
</svg>
