<?xml version="1.0" encoding="utf-8"?>
<!-- Generator: Adobe Illustrator 25.2.0, SVG Export Plug-In . SVG Version: 6.00 Build 0)  -->
<svg version="1.1" id="Instagram_Social" xmlns="http://www.w3.org/2000/svg" xmlns:xlink="http://www.w3.org/1999/xlink" x="0px"
	 y="0px" viewBox="0 0 128 128" style="enable-background:new 0 0 128 128;" xml:space="preserve">
<style type="text/css">
	.st0{fill:#888888;}
	.st1{fill:#FFFFFF;}
</style>
<circle id="Circle" class="st0" cx="64" cy="64" r="64"/>
<g id="Instagram">
	<path class="st1" d="M65,31.4c10.9,0,12.2,0,16.5,0.2c4,0.2,6.2,0.8,7.6,1.4c1.9,0.7,3.3,1.6,4.7,3.1c1.4,1.4,2.3,2.8,3.1,4.7
		c0.6,1.4,1.2,3.6,1.4,7.6c0.2,4.3,0.2,5.6,0.2,16.5s0,12.2-0.2,16.5c-0.2,4-0.8,6.2-1.4,7.6c-0.7,1.9-1.6,3.3-3.1,4.7
		c-1.4,1.4-2.8,2.3-4.7,3.1c-1.4,0.6-3.6,1.2-7.6,1.4c-4.3,0.2-5.6,0.2-16.5,0.2s-12.2,0-16.5-0.2c-4-0.2-6.2-0.8-7.6-1.4
		c-1.9-0.7-3.3-1.6-4.7-3.1c-1.4-1.4-2.3-2.8-3.1-4.7c-0.6-1.4-1.2-3.6-1.4-7.6c-0.2-4.3-0.2-5.6-0.2-16.5s0-12.2,0.2-16.5
		c0.2-4,0.8-6.2,1.4-7.6c0.7-1.9,1.6-3.3,3.1-4.7c1.4-1.4,2.8-2.3,4.7-3.1c1.4-0.6,3.6-1.2,7.6-1.4C52.8,31.5,54.1,31.4,65,31.4
		 M65,24.1c-11.1,0-12.5,0-16.9,0.2c-4.4,0.2-7.3,0.9-9.9,1.9c-2.7,1-5,2.4-7.3,4.7c-2.3,2.3-3.7,4.6-4.7,7.3
		c-1,2.6-1.7,5.6-1.9,9.9c-0.2,4.4-0.2,5.8-0.2,16.9s0,12.5,0.2,16.9c0.2,4.4,0.9,7.3,1.9,9.9c1,2.7,2.4,5,4.7,7.3s4.6,3.7,7.3,4.7
		c2.6,1,5.6,1.7,9.9,1.9c4.4,0.2,5.8,0.2,16.9,0.2s12.5,0,16.9-0.2c4.4-0.2,7.3-0.9,9.9-1.9c2.7-1,5-2.4,7.3-4.7
		c2.3-2.3,3.7-4.6,4.7-7.3c1-2.6,1.7-5.6,1.9-9.9c0.2-4.4,0.2-5.8,0.2-16.9s0-12.5-0.2-16.9c-0.2-4.4-0.9-7.3-1.9-9.9
		c-1-2.7-2.4-5-4.7-7.3s-4.6-3.7-7.3-4.7c-2.6-1-5.6-1.7-9.9-1.9C77.5,24.1,76.1,24.1,65,24.1L65,24.1z"/>
	<path class="st1" d="M65,44c-11.6,0-21,9.4-21,21s9.4,21,21,21s21-9.4,21-21S76.6,44,65,44z M65,78.7c-7.5,0-13.6-6.1-13.6-13.6
		S57.5,51.4,65,51.4c7.5,0,13.6,6.1,13.6,13.6S72.6,78.7,65,78.7z"/>
	<circle class="st1" cx="86.9" cy="43.2" r="4.9"/>
</g>
</svg>
