<?xml version="1.0" encoding="utf-8"?>
<!-- Generator: Adobe Illustrator 25.2.0, SVG Export Plug-In . SVG Version: 6.00 Build 0)  -->
<svg version="1.1" id="Layer_1" xmlns="http://www.w3.org/2000/svg" xmlns:xlink="http://www.w3.org/1999/xlink" x="0px" y="0px"
	 viewBox="0 0 128 128" style="enable-background:new 0 0 128 128;" xml:space="preserve">
<style type="text/css">
	.st0{fill:#888888;}
</style>
<g id="art">
	<g>
		<g>
			<path class="st0" d="M64.1,0C28.7,0,0,28.6,0,63.9c0,27.1,16.9,50.3,40.7,59.6c-0.6-5.1-1.1-12.8,0.2-18.4
				c1.2-5,7.5-31.8,7.5-31.8s-1.9-3.8-1.9-9.5c0-8.9,5.2-15.5,11.6-15.5c5.5,0,8.1,4.1,8.1,9c0,5.5-3.5,13.7-5.3,21.3
				c-1.5,6.4,3.2,11.6,9.5,11.6c11.4,0,20.1-12,20.1-29.3c0-15.3-11-26-26.8-26c-18.2,0-28.9,13.6-28.9,27.7
				c0,5.5,2.1,11.4,4.7,14.6c0.5,0.6,0.6,1.2,0.4,1.8c-0.5,2-1.6,6.4-1.8,7.3c-0.3,1.2-0.9,1.4-2.2,0.8c-8-3.7-13-15.4-13-24.8
				c0-20.2,14.7-38.7,42.3-38.7c22.2,0,39.5,15.8,39.5,36.9c0,22.1-13.9,39.8-33.2,39.8c-6.5,0-12.6-3.4-14.7-7.4
				c0,0-3.2,12.2-4,15.2c-1.4,5.6-5.3,12.5-8,16.8c6,1.8,12.3,2.8,19,2.8c35.4,0,64.1-28.6,64.1-63.9C128.1,28.6,99.4,0,64.1,0z"/>
		</g>
	</g>
</g>
</svg>
