<?xml version="1.0" encoding="utf-8"?>
<!-- Generator: Adobe Illustrator 25.2.0, SVG Export Plug-In . SVG Version: 6.00 Build 0)  -->
<svg version="1.1" id="Layer_1" xmlns="http://www.w3.org/2000/svg" xmlns:xlink="http://www.w3.org/1999/xlink" x="0px" y="0px"
	 viewBox="0 0 128 128" style="enable-background:new 0 0 128 128;" xml:space="preserve">
<style type="text/css">
	.st0{fill:#888888;}
	.st1{fill:#FFFFFF;}
</style>
<circle class="st0" cx="64" cy="64" r="64"/>
<path class="st1" d="M110.2,42c-3.1,1.4-6.4,2.3-9.9,2.7c3.6-2.1,6.3-5.5,7.6-9.5c-3.3,2-7,3.4-10.9,4.2c-3.1-3.3-7.6-5.4-12.6-5.4
	c-9.5,0-17.2,7.7-17.2,17.2c0,1.3,0.2,2.7,0.4,3.9c-14.3-0.7-27-7.6-35.5-18c-1.5,2.5-2.3,5.5-2.3,8.6c0,6,3,11.2,7.7,14.3
	c-2.8-0.1-5.5-0.9-7.8-2.2c0,0.1,0,0.1,0,0.2c0,8.3,5.9,15.3,13.8,16.9c-1.4,0.4-3,0.6-4.5,0.6c-1.1,0-2.2-0.1-3.2-0.3
	c2.2,6.8,8.5,11.8,16.1,11.9c-5.9,4.6-13.3,7.4-21.4,7.4c-1.4,0-2.8-0.1-4.1-0.2c7.6,4.9,16.7,7.7,26.4,7.7
	c31.6,0,48.9-26.2,48.9-48.9c0-0.7,0-1.5-0.1-2.2C105,48.5,107.9,45.5,110.2,42z"/>
</svg>
