<svg id="Available_Homes" data-name="Available Homes" xmlns="http://www.w3.org/2000/svg" xmlns:xlink="http://www.w3.org/1999/xlink" viewBox="0 0 245.23 104.62"><defs><style>.cls-1{fill:none;}.cls-2{clip-path:url(#clip-path);}.cls-3{fill:#fbb03b;}</style><clipPath id="clip-path"><rect class="cls-1" x="75.52" y="56.86" width="44" height="44"/></clipPath></defs><title>Available Homes</title><g id="Black_And_Grey_-_Color" data-name="Black And Grey - Color"><g id="Avalon"><path d="M9.18,32.91,3.62,46.3H.86L17.12,7.42h1.51L34.94,46.3H32L26.46,32.91Zm8.53-21.16a2.78,2.78,0,0,0-.21.64c-.51,1.55-1,2.86-1.46,3.94L10.1,30.7H25.54L19.6,16.39A26.16,26.16,0,0,1,17.71,11.75Z"/><path d="M49.09,38.47l13-30.77H64.8L48.17,46.63H46.66L30,7.7h2.92l13,30.67a44.73,44.73,0,0,1,1.67,4.53A32.62,32.62,0,0,1,49.09,38.47Z"/><path d="M68.15,32.91,62.59,46.3H59.83L76.09,7.42H77.6L93.91,46.3H91L85.43,32.91Zm8.53-21.16a2.53,2.53,0,0,0-.22.64c-.5,1.55-1,2.86-1.45,3.94L69.07,30.7H84.51L78.57,16.39A26.16,26.16,0,0,1,76.68,11.75Z"/><path d="M98.44,46.3V7.7H101V46.3Z"/><path d="M110.56,46.3V7.7h2.59V43.93h17.77V46.3Z"/><path d="M140.86,32.91,135.3,46.3h-2.75L148.8,7.42h1.51L166.62,46.3h-2.91l-5.57-13.39Zm8.53-21.16a3.49,3.49,0,0,0-.21.64c-.51,1.55-1,2.86-1.46,3.94L141.78,30.7h15.44l-5.93-14.31A25.78,25.78,0,0,1,149.39,11.75Z"/><path d="M171,7.8q4.22-.32,8.62-.32a13.31,13.31,0,0,1,7.61,2.16,7.08,7.08,0,0,1,3.21,6.26,10.35,10.35,0,0,1-1.7,5.73,11.81,11.81,0,0,1-4.07,4,14,14,0,0,1,6.42,4.11,9.56,9.56,0,0,1,2.59,6.53q0,5.09-3.21,7.72t-8.8,2.65c-3.73,0-7.28-.15-10.67-.43Zm16.85,8a5.17,5.17,0,0,0-2.45-4.56,9.81,9.81,0,0,0-5.51-1.62c-2,0-4.13.07-6.29.21V24.6h2.64q2,0,5.73.32a12,12,0,0,0,4.15-3.72A9,9,0,0,0,187.83,15.82Zm.6,26.3A7,7,0,0,0,191,36.53a8.12,8.12,0,0,0-2.45-5.89,13.16,13.16,0,0,0-6.73-3.4,22.52,22.52,0,0,0-4.61-.43h-3.59V44q2.37.27,8.37.27A9.59,9.59,0,0,0,188.43,42.12Z"/><path d="M201.49,46.3V7.7h2.6V43.93h17.76V46.3Z"/><path d="M226.71,46.3V7.7h17.93V10H229.3V24.17h13.88v2.21H229.3V44h15.93V46.3Z"/><path d="M69.78,98.3V79H43.27V98.3h-2.6V59.7h2.6v17H69.78v-17h2.59V98.3Z"/><path d="M142.57,96.31h-1.46L129.83,69c-.65-1.51-1.17-2.84-1.57-4l-.54,4.1L123.29,98.3h-2.64L127,59.37h1.51l12,28.62A29.93,29.93,0,0,1,142,91.77c.11-.39.67-1.64,1.67-3.73l13.45-28.67h1.46l5.88,38.93h-2.7L157.58,69a28.87,28.87,0,0,1-.43-4.15,1.94,1.94,0,0,0-.24.51l-.65,1.51c-.31.7-.62,1.43-.95,2.19Z"/><path d="M169.35,98.3V59.7h17.93V62H171.94V76.17h13.88v2.21H171.94V96h15.93V98.3Z"/><path d="M209.2,63.1a19.79,19.79,0,0,0-7.83-1.68q-7.87,0-7.88,5.83A7.32,7.32,0,0,0,195.27,72a19.78,19.78,0,0,0,4.32,3.89c1.69,1.13,3.39,2.29,5.08,3.48A18.06,18.06,0,0,1,209,83.62a9,9,0,0,1,1.78,5.4c0,3.27-1.1,5.75-3.29,7.42S202.25,99,198.38,99a16.44,16.44,0,0,1-9.91-3L189.76,94a15.34,15.34,0,0,0,8.54,2.54c3.09,0,5.47-.62,7.12-1.87a6.29,6.29,0,0,0,2.49-5.37,7.26,7.26,0,0,0-1.78-4.62,21,21,0,0,0-4.32-3.94c-1.7-1.17-3.39-2.36-5.08-3.59a18.48,18.48,0,0,1-4.32-4.37,9.3,9.3,0,0,1-1.78-5.46,7.32,7.32,0,0,1,2.83-6.07,12,12,0,0,1,7.67-2.24,21,21,0,0,1,9,1.94Z"/><g class="cls-2"><g class="cls-2"><path class="cls-3" d="M114.33,70.23V62.06h-8.17a9.77,9.77,0,0,0-17.27,0H80.72v8.17a9.77,9.77,0,0,0,0,17.27v8.17h8.17a9.78,9.78,0,0,0,17.27,0h8.17V87.5a9.78,9.78,0,0,0,0-17.27M112.9,84.8l-1.63.87v6.94h-6.94l-.87,1.63a6.73,6.73,0,0,1-11.88,0l-.86-1.63h-7V85.67l-1.62-.87a6.73,6.73,0,0,1,0-11.88l1.62-.86v-7h7l.86-1.62a6.73,6.73,0,0,1,11.88,0l.87,1.62h6.94v7l1.63.86a6.73,6.73,0,0,1,0,11.88"/></g></g></g></g></svg>